<svg id="Layer_1" data-name="Layer 1" xmlns="http://www.w3.org/2000/svg" viewBox="0 0 1920 1080"><defs><style>.cls-1{font-size:173.17px;font-family:Lato-Bold, Lato;font-weight:700;}.cls-1,.cls-3,.cls-5{fill:#2f3192;}.cls-2{letter-spacing:0em;}.cls-4{fill:#febf10;}.cls-5{font-size:100.88px;font-family:Poppins-SemiBold, Poppins;font-weight:600;}.cls-6{font-size:107.24px;}</style></defs><text class="cls-1" transform="translate(661.4 577.29) scale(0.98 1)">pni <tspan class="cls-2" x="282.09" y="0">K</tspan><tspan x="400.54" y="0">aksha</tspan></text><path class="cls-3" d="M383,670.74c1.3-10.91,2.12-17.69,3-25.4L374,648c.76-7.89,0-15.22,2.3-21.38,30.64-81.29,61.42-162.52,93-243.45,5.43-13.93,12.65-28.22,22.67-39,7.82-8.39,21.06-15.06,32.28-15.71,6.73-.39,16.83,11,20.82,19.3,7.74,16.14,12.65,33.71,17.94,50.93,3.66,11.92,9.11,13.43,18.75,6,19.29-14.9,38.88-29.41,59.87-45.22,7.23,3.47,7,11.28,1.19,17.63-14.62,16.08-29.21,32.52-45.87,46.34-21.14,17.52-23.11,23.23-7,48.57,1.54-.25,3.79.06,5.11-.9,36.13-26.35,79-42.56,111-75.26,8.6-8.78,20.82-14,33.8-22.47.15,4.41,2,10.66.27,15.73-5.47,16.24-16.69,27.77-31.3,37.08-32.88,21-64.83,43.36-97.65,64.42-12.52,8-14.63,16.54-9.51,30.42,13,35.23,24.41,71,36.41,106.63.93,2.77,2.56,5.87,2,8.45-1.64,8.07-4.16,16-6.33,23.92-5.1-5.21-10.44-10.21-15.21-15.71-3-3.47-5.17-7.68-7.72-11.56l-3.35,1.31c2.21,7.61,4.41,15.22,7.39,25.51-2.57-2.82-3.84-3.73-4.45-5-26.28-52.8-49.31-106.87-64.33-164.08-1-3.78-2.36-7.45-3.37-11.22-2.92-11-7.8-12.34-17.69-6-53.59,34.45-61.18,43-83.72,101.19-7.05,18.2-15.13,36.32-19.29,55.24C417.33,650.87,399.54,656.32,383,670.74ZM488.7,459.18c40.25-14.28,46.18-30.47,24-63.2C504.67,417.16,497.29,436.57,488.7,459.18Z"/><path class="cls-4" d="M1490.5,235.7H328.58A80.54,80.54,0,0,0,248,316.24V700.16a80.53,80.53,0,0,0,80.54,80.54h537A18.5,18.5,0,0,0,884,762.2h0a18.5,18.5,0,0,0-18.5-18.5h-537A43.54,43.54,0,0,1,285,700.16V316.24a43.55,43.55,0,0,1,43.54-43.54H1490.5A43.54,43.54,0,0,1,1534,316.24v336a18.5,18.5,0,0,0,18.5,18.5h0a18.5,18.5,0,0,0,18.5-18.5v-336A80.54,80.54,0,0,0,1490.5,235.7Z"/><text class="cls-5" transform="translate(904.7 780.7)">my <tspan class="cls-6" x="190.75" y="0">classroom</tspan></text><rect class="cls-4" x="1041.04" y="633.74" width="530" height="37" rx="18.5" transform="translate(2612.08 1304.48) rotate(180)"/></svg>